<svg xmlns="http://www.w3.org/2000/svg" width="200" height="30" viewBox="0 0 200 30"><defs><style>.a{fill:none;}.b{fill:#1a1818;}</style></defs><g transform="translate(-828 -404)"><rect class="a" width="200" height="30" transform="translate(828 404)"/><g transform="translate(660.811 210.845)"><path class="b" d="M180.993,193.155h2.338v20.793a10.156,10.156,0,0,1-2.073,6.738,6.833,6.833,0,0,1-5.508,2.469,7.042,7.042,0,0,1-5.59-2.246,9.251,9.251,0,0,1-1.972-6.311h2.318a7.147,7.147,0,0,0,1.392,4.808A4.848,4.848,0,0,0,175.749,221a4.525,4.525,0,0,0,3.79-1.89,8.255,8.255,0,0,0,1.453-5.061Z"/><path class="b" d="M214.048,193.155v21a9.221,9.221,0,0,1-2.307,6.646,8.626,8.626,0,0,1-6.494,2.358q-4.269,0-6.535-2.327t-2.266-6.757V193.155h2.318v20.834q0,7.013,6.484,7.012,6.382,0,6.464-6.808V193.155Z" transform="translate(-6.673)"/><path class="b" d="M246.676,222.749H244.36l-13.964-25.2v25.2h-2.337V193.155H230.4L244.38,218.4V193.155h2.3Z" transform="translate(-14.138)"/><path class="b" d="M275.439,208.582H263.955v12.012h13.212v2.155H261.639V193.155h15.426v2.195h-13.11v11.078h11.484Z" transform="translate(-22.067)"/><path class="b" d="M338.5,193.155h2.337v20.793a10.156,10.156,0,0,1-2.074,6.738,6.831,6.831,0,0,1-5.507,2.469,7.041,7.041,0,0,1-5.59-2.246,9.252,9.252,0,0,1-1.971-6.311h2.318a7.147,7.147,0,0,0,1.392,4.808A4.847,4.847,0,0,0,333.251,221a4.525,4.525,0,0,0,3.79-1.89,8.265,8.265,0,0,0,1.454-5.061Z" transform="translate(-37.192)"/><path class="b" d="M371.55,193.155v21a9.221,9.221,0,0,1-2.306,6.646,8.627,8.627,0,0,1-6.494,2.358q-4.269,0-6.536-2.327t-2.266-6.757V193.155h2.317v20.834q0,7.013,6.484,7.012,6.382,0,6.463-6.808V193.155Z" transform="translate(-43.865)"/><path class="b" d="M387.9,220.594h12.2v2.155H385.56V193.155H387.9Z" transform="translate(-51.329)"/><path class="b" d="M411,208.82l7.377-15.665h2.663l-8.9,18.456v11.138h-2.316V211.611l-8.883-18.456h2.724Z" transform="translate(-54.961)"/><path class="b" d="M303.675,222.363c-2.491,2.673-5.772,3.118-8.021.884a4.932,4.932,0,0,1-.345-6.478,8.451,8.451,0,0,1,.957-.995l-2.223-2.25s-.767.77-1.039,1.085a7.882,7.882,0,0,0,.487,10.824,7.991,7.991,0,0,0,11.5.126l7.977-7.955-2.256-2.263Z" transform="translate(-29.02 -4.81)"/><path class="b" d="M301.691,206.857s1.917-1.768,2.59-2.51l0,0h0a6.491,6.491,0,1,0-11.122-4.648,7.122,7.122,0,0,0,1.494,4.518,30.936,30.936,0,0,0,2.219,2.434l15.493,15.528,2.259-2.254Zm-2.112-2.218a28.957,28.957,0,0,1-2.68-2.832,3.354,3.354,0,1,1,6.109-1.856,3.62,3.62,0,0,1-.935,2.258A33.357,33.357,0,0,1,299.579,204.64Z" transform="translate(-29.51 -0.036)"/></g></g></svg>